<svg xmlns="http://www.w3.org/2000/svg" width="1036" height="500" viewBox="0 0 1036 500">
<rect width="100%" height="100%" fill="white"/>
<text x="72" y="34" font-family="Arial" font-size="20" font-weight="700">RQ1 Target-Act Recall@10 by Chunking Configuration</text>
<line x1="72" y1="382.00" x2="1008" y2="382.00" stroke="#334155"/>
<line x1="72" y1="58" x2="72" y2="382" stroke="#334155"/>
<rect x="85.68" y="139.28" width="44.64" height="242.72" fill="#2563eb"/><text x="108.00" y="133.28" font-family="Arial" font-size="11" text-anchor="middle">0.749</text><text x="108.00" y="402" font-family="Arial" font-size="11" text-anchor="end" transform="rotate(-45 108.00 402)">fs_256_50</text><rect x="157.68" y="144.18" width="44.64" height="237.82" fill="#2563eb"/><text x="180.00" y="138.18" font-family="Arial" font-size="11" text-anchor="middle">0.734</text><text x="180.00" y="402" font-family="Arial" font-size="11" text-anchor="end" transform="rotate(-45 180.00 402)">sem_50_128</text><rect x="229.68" y="146.99" width="44.64" height="235.01" fill="#2563eb"/><text x="252.00" y="140.99" font-family="Arial" font-size="11" text-anchor="middle">0.725</text><text x="252.00" y="402" font-family="Arial" font-size="11" text-anchor="end" transform="rotate(-45 252.00 402)">sem_70_128</text><rect x="301.68" y="148.70" width="44.64" height="233.30" fill="#2563eb"/><text x="324.00" y="142.70" font-family="Arial" font-size="11" text-anchor="middle">0.720</text><text x="324.00" y="402" font-family="Arial" font-size="11" text-anchor="end" transform="rotate(-45 324.00 402)">sem_50_256</text><rect x="373.68" y="149.98" width="44.64" height="232.02" fill="#2563eb"/><text x="396.00" y="143.98" font-family="Arial" font-size="11" text-anchor="middle">0.716</text><text x="396.00" y="402" font-family="Arial" font-size="11" text-anchor="end" transform="rotate(-45 396.00 402)">sem_50_64</text><rect x="445.68" y="149.98" width="44.64" height="232.02" fill="#2563eb"/><text x="468.00" y="143.98" font-family="Arial" font-size="11" text-anchor="middle">0.716</text><text x="468.00" y="402" font-family="Arial" font-size="11" text-anchor="end" transform="rotate(-45 468.00 402)">sem_70_64</text><rect x="517.68" y="150.16" width="44.64" height="231.84" fill="#2563eb"/><text x="540.00" y="144.16" font-family="Arial" font-size="11" text-anchor="middle">0.716</text><text x="540.00" y="402" font-family="Arial" font-size="11" text-anchor="end" transform="rotate(-45 540.00 402)">sem_70_256</text><rect x="589.68" y="150.61" width="44.64" height="231.39" fill="#2563eb"/><text x="612.00" y="144.61" font-family="Arial" font-size="11" text-anchor="middle">0.714</text><text x="612.00" y="402" font-family="Arial" font-size="11" text-anchor="end" transform="rotate(-45 612.00 402)">fs_64_12</text><rect x="661.68" y="153.41" width="44.64" height="228.59" fill="#2563eb"/><text x="684.00" y="147.41" font-family="Arial" font-size="11" text-anchor="middle">0.706</text><text x="684.00" y="402" font-family="Arial" font-size="11" text-anchor="end" transform="rotate(-45 684.00 402)">fs_128_25</text><rect x="733.68" y="154.16" width="44.64" height="227.84" fill="#2563eb"/><text x="756.00" y="148.16" font-family="Arial" font-size="11" text-anchor="middle">0.703</text><text x="756.00" y="402" font-family="Arial" font-size="11" text-anchor="end" transform="rotate(-45 756.00 402)">hier_article</text><rect x="805.68" y="154.25" width="44.64" height="227.75" fill="#2563eb"/><text x="828.00" y="148.25" font-family="Arial" font-size="11" text-anchor="middle">0.703</text><text x="828.00" y="402" font-family="Arial" font-size="11" text-anchor="end" transform="rotate(-45 828.00 402)">hier_paragraph_contextualized</text><rect x="877.68" y="156.88" width="44.64" height="225.12" fill="#2563eb"/><text x="900.00" y="150.88" font-family="Arial" font-size="11" text-anchor="middle">0.695</text><text x="900.00" y="402" font-family="Arial" font-size="11" text-anchor="end" transform="rotate(-45 900.00 402)">hier_paragraph</text><rect x="949.68" y="162.54" width="44.64" height="219.46" fill="#2563eb"/><text x="972.00" y="156.54" font-family="Arial" font-size="11" text-anchor="middle">0.677</text><text x="972.00" y="402" font-family="Arial" font-size="11" text-anchor="end" transform="rotate(-45 972.00 402)">hier_subparagraph</text>
</svg>
